HIERARCHY
ROOT hip
{
	OFFSET 0.000000 0.000000 0.000000 
	CHANNELS 6 Xposition Yposition Zposition Xrotation Zrotation Yrotation
	JOINT abdomen
	{
		OFFSET 0.000000 3.402643 0.000000 
		CHANNELS 3 Xrotation Zrotation Yrotation
		JOINT chest
		{
			OFFSET 0.000000 8.438565 -0.680529 
			CHANNELS 3 Xrotation Zrotation Yrotation
			JOINT neck
			{
				OFFSET 0.000000 10.207942 -0.272212 
				CHANNELS 3 Xrotation Zrotation Yrotation
				JOINT head
				{
					OFFSET 0.000000 3.130431 0.000000 
					CHANNELS 3 Xrotation Zrotation Yrotation
					End Site
					{
						OFFSET 0.000000 3.130435 0.000000 
					}
				}
			}
			JOINT lCollar
			{
				OFFSET 3.470700 6.669187 -0.816635 
				CHANNELS 3 Yrotation Zrotation Xrotation
				JOINT lShldr
				{
					OFFSET 3.198488 0.000000 0.000000 
					CHANNELS 3 Zrotation Yrotation Xrotation
					JOINT lForeArm
					{
						OFFSET 10.139888 0.000000 0.000000 
						CHANNELS 3 Yrotation Zrotation Xrotation
						JOINT lHand
						{
							OFFSET 8.370511 0.000000 0.000000 
							CHANNELS 3 Zrotation Yrotation Xrotation
							End Site
							{
								OFFSET 4.083176 0.000000 0.000000 
							}
						}
					}
				}
			}
			JOINT rCollar
			{
				OFFSET -3.470700 6.669187 -0.816635 
				CHANNELS 3 Yrotation Zrotation Xrotation
				JOINT rShldr
				{
					OFFSET -3.198488 0.000000 0.000000 
					CHANNELS 3 Zrotation Yrotation Xrotation
					JOINT rForeArm
					{
						OFFSET -10.139888 0.000000 0.000000 
						CHANNELS 3 Yrotation Zrotation Xrotation
						JOINT rHand
						{
							OFFSET -8.370511 0.000000 0.000000 
							CHANNELS 3 Zrotation Yrotation Xrotation
							End Site
							{
								OFFSET -4.083176 0.000000 0.000000 
							}
						}
					}
				}
			}
		}
	}
	JOINT lThigh
	{
		OFFSET 5.308129 -1.633274 1.361059 
		CHANNELS 3 Xrotation Zrotation Yrotation
		JOINT lShin
		{
			OFFSET -2.041588 -20.007561 0.000000 
			CHANNELS 3 Xrotation Zrotation Yrotation
			JOINT lFoot
			{
				OFFSET 0.000000 -19.190928 -1.224953 
				CHANNELS 3 Xrotation Yrotation Zrotation
				End Site
				{
					OFFSET 0.000000 -2.449906 4.627600 
				}
			}
		}
	}
	JOINT rThigh
	{
		OFFSET -5.308129 -1.633274 1.361059 
		CHANNELS 3 Xrotation Zrotation Yrotation
		JOINT rShin
		{
			OFFSET 2.041588 -20.007561 0.000000 
			CHANNELS 3 Xrotation Zrotation Yrotation
			JOINT rFoot
			{
				OFFSET 0.000000 -19.190928 -1.224953 
				CHANNELS 3 Xrotation Yrotation Zrotation
				End Site
				{
					OFFSET 0.000000 -2.449906 4.627600 
				}
			}
		}
	}
}
MOTION
Frames: 18
Frame Time: 0.033333
2.684950 44.605019 1.491155 10.026690 2.154121 -8.974602 0.000000 0.000000 0.000000 -1.830925 -4.128758 5.580744 12.954621 12.700493 0.909206 -12.925815 -1.308171 -27.023182 -16.705990 3.999893 25.000000 -77.864616 11.193394 -9.180531 -89.101768 3.316509 69.819931 -25.723583 -18.759876 -49.328087 -11.067292 3.524114 25.000000 47.342117 3.244164 58.325668 69.360291 -44.158333 54.610809 41.831238 1.911357 -81.541374 0.799617 0.669598 17.346336 14.306246 -0.605665 -0.279722 -5.776964 -9.314975 7.012936 -4.928944 -4.255508 0.023938 17.468996 0.602650 0.720708 -3.891047 14.003183 -1.279736 
2.760469 44.604507 1.437862 9.868846 1.914625 -10.008640 0.000000 0.000000 0.000000 -1.330842 -3.661124 5.680526 12.360194 12.451650 0.893171 -12.743216 -1.609995 -27.095745 -16.905107 3.733517 25.000000 -76.955139 9.760446 -9.650198 -89.157433 1.133480 70.484901 -25.778950 -19.259571 -49.026455 -10.636661 3.487053 25.000000 46.698425 4.122038 57.883068 72.540321 -43.838543 61.578651 42.734383 3.876855 -81.336967 0.828035 1.085281 17.485592 14.772275 -0.839830 -0.365252 -5.949624 -8.408130 6.771498 -5.493869 -3.620278 0.219474 18.464569 -0.032371 0.663625 -4.370992 14.749927 -1.124208 
2.899535 44.601196 1.351293 9.565063 1.752650 -11.394001 0.000000 0.000000 0.000000 -0.508636 -3.261590 5.751549 11.519889 12.264709 0.878436 -12.506343 -2.186623 -27.183674 -17.490036 3.414786 25.000000 -75.619743 7.399407 -10.261015 -89.136330 -1.629761 71.542931 -25.857359 -20.336256 -48.422768 -10.365846 3.338000 25.000000 45.681900 5.910406 57.143532 75.640381 -42.520790 68.570961 43.289505 5.830978 -81.026627 0.888419 1.396039 17.585796 15.466564 -1.123238 -0.479164 -6.161062 -7.103523 6.505117 -6.341623 -2.946400 0.464229 20.067589 -1.028670 0.587519 -4.861517 15.778542 -0.176929 
3.078960 44.579559 1.247656 9.331714 1.965844 -12.469854 0.000000 0.000000 0.000000 0.264107 -3.290981 5.726490 10.537911 12.244214 0.880751 -12.262604 -2.810873 -27.386454 -18.293287 3.356791 25.000000 -74.417740 4.572468 -10.726785 -88.978600 -3.884518 72.771545 -26.020519 -21.600740 -47.685986 -10.310479 3.142019 25.000000 44.712204 7.769711 56.409958 76.585503 -41.681713 71.798424 43.207939 7.832816 -80.632751 0.633428 1.174577 17.512312 16.224592 -1.192130 -0.534355 -6.344822 -5.887584 6.363722 -7.518311 -2.782756 0.555589 21.941380 -1.937134 0.533217 -5.526820 16.706573 0.573942 
3.266621 44.540154 1.133036 9.255404 2.274715 -13.369560 0.000000 0.000000 0.000000 0.870734 -3.466398 5.669510 9.511547 12.364357 0.887071 -12.173652 -3.250973 -27.713041 -19.149916 3.665565 25.000000 -73.382553 1.356455 -11.032160 -88.741356 -5.797870 74.287567 -26.113335 -22.531225 -47.127800 -10.451190 2.904337 25.000000 43.846043 9.468365 55.752087 76.104187 -41.062675 71.288963 42.753700 8.466751 -80.457275 0.098151 0.834464 17.397058 17.075275 -1.195080 -0.586390 -6.641692 -4.744852 6.586483 -8.980366 -2.772188 0.602799 23.968067 -2.747496 0.527744 -6.327637 17.653742 1.307240 
3.434501 44.498543 1.009200 9.324722 2.409184 -14.350567 0.000000 0.000000 0.000000 1.438119 -3.426657 5.665547 8.451319 12.389608 0.901675 -12.206009 -3.387273 -28.059837 -19.717728 4.197845 25.000000 -72.442291 -2.147656 -11.277563 -88.439423 -7.462618 76.076805 -25.895212 -23.082457 -46.939140 -10.369381 2.701576 25.000000 42.708290 10.482643 55.042568 75.816612 -41.179604 70.059021 42.455509 9.432842 -80.257362 -0.603019 0.775171 17.381620 18.070415 -1.224629 -0.659216 -7.131176 -3.592559 7.000538 -10.621706 -2.548103 0.722059 25.947294 -3.440627 0.555969 -6.577268 18.810841 2.370736 
3.578080 44.467945 0.880398 9.510026 2.350102 -15.416897 0.000000 0.000000 0.000000 1.868169 -3.211187 5.705480 7.543128 12.476435 0.910913 -12.314628 -3.430465 -28.240591 -20.239319 4.862069 25.000000 -71.791794 -5.684817 -11.352213 -87.984055 -8.348504 77.851006 -25.463884 -23.344698 -47.007118 -10.430606 2.586103 25.000000 41.821457 11.771687 54.413803 75.531860 -41.462723 70.213631 42.396461 9.374092 -80.262321 -1.451352 1.009344 17.451130 19.153152 -1.254094 -0.746804 -7.684775 -2.465484 7.232309 -12.374743 -2.098371 0.915919 28.078499 -3.910003 0.640742 -7.308277 19.173109 1.651338 
3.688935 44.444622 0.755579 9.977892 2.164063 -16.533339 0.000000 0.000000 0.000000 1.994706 -2.879117 5.778310 6.777734 12.677018 0.926918 -12.287189 -3.513248 -28.250130 -20.733803 5.639530 25.000000 -71.580544 -9.135030 -11.230382 -87.323166 -8.393950 79.334808 -25.246216 -23.534288 -47.045963 -10.629189 2.757609 25.000000 40.984619 13.034095 53.812420 74.615982 -42.145531 69.970734 41.854080 9.284530 -80.250641 -2.527108 1.520356 17.571737 20.239548 -1.244599 -0.790032 -8.144787 -1.504092 6.979018 -14.243969 -1.405905 1.189772 29.937620 -4.272060 0.743659 -7.939476 19.451464 1.155598 
3.743342 44.422390 0.651384 10.786207 1.726775 -17.805704 0.000000 0.000000 0.000000 1.778698 -2.235252 5.916605 6.113291 12.948302 0.949312 -12.065455 -3.655530 -28.075594 -20.962906 6.412111 25.000000 -71.700577 -12.297839 -10.984891 -86.713478 -7.869986 80.644890 -25.204439 -23.894655 -46.938862 -10.704512 3.110023 25.000000 41.260818 14.342955 53.761158 72.581734 -43.835388 69.598625 41.678558 8.746783 -80.392441 -3.696393 2.551367 17.893147 21.180698 -1.338711 -0.901746 -8.409204 -0.707695 6.277548 -16.008318 -0.185686 1.629202 31.223967 -4.654148 0.781113 -8.138097 19.723038 1.255097 
3.735286 44.415298 0.591474 11.515332 0.966478 -19.285395 0.000000 0.000000 0.000000 1.553104 -1.249541 6.137794 5.866690 13.118264 0.965628 -11.940498 -3.750021 -27.717472 -20.999712 6.840516 25.000000 -71.599625 -14.824900 -10.907569 -86.253555 -7.129253 81.038780 -24.699806 -23.597609 -47.425350 -10.790575 3.648148 25.000000 41.454498 15.521356 53.662621 69.162674 -45.023308 64.906929 40.996979 6.995826 -80.742035 -4.350885 4.112155 18.372868 21.949886 -1.690621 -1.002733 -8.505489 -0.176648 5.333798 -17.006615 1.532652 2.175003 31.630306 -5.122410 0.715004 -7.934958 19.833267 1.818014 
3.700023 44.435078 0.584871 11.679774 0.219959 -20.628323 0.000000 0.000000 0.000000 1.796915 -0.380672 6.325884 5.925640 13.066859 0.964416 -11.989643 -3.757964 -27.310461 -20.936634 6.818308 25.000000 -70.974953 -16.819281 -11.121382 -85.499908 -6.641409 78.677620 -23.266329 -21.035921 -49.454762 -10.803560 3.970118 25.000000 42.000599 16.256285 53.816063 65.217712 -45.877167 56.876827 40.395210 3.906712 -81.272179 -4.198985 5.526295 18.851395 22.448767 -2.162519 -1.153430 -8.380283 0.189708 4.331366 -16.762684 3.006856 2.594604 31.196869 -5.562712 0.573871 -7.582461 20.031044 2.844312 
3.668253 44.465149 0.610522 11.425852 -0.201014 -21.525030 0.000000 0.000000 0.000000 2.216799 0.078067 6.419051 6.180502 12.828678 0.940562 -12.192630 -3.652469 -26.944454 -21.050535 6.752192 25.000000 -70.258560 -18.526030 -11.390159 -84.240334 -6.438888 72.823349 -21.005650 -16.167772 -52.676029 -10.976351 4.179961 25.000000 42.465919 16.607515 53.983620 61.697338 -46.028309 47.423378 38.935833 0.312781 -81.622070 -3.749660 6.297448 19.151541 22.937500 -2.569044 -1.295724 -8.283732 0.524348 3.443583 -15.790629 3.750125 2.780809 30.102583 -5.883116 0.398759 -7.110272 20.407360 3.134191 
3.607648 44.480335 0.649164 11.318642 -0.402179 -22.287598 0.000000 0.000000 0.000000 2.373099 0.380533 6.480679 6.320997 12.433928 0.911929 -12.140255 -3.507529 -26.485220 -20.792484 6.643920 25.000000 -69.542961 -20.027693 -11.667948 -83.056648 -6.858652 65.131973 -18.479622 -10.901058 -55.713604 -10.734850 4.212914 25.000000 43.505367 16.067097 54.598976 59.209126 -47.397064 40.041866 37.289349 -1.460070 -81.656113 -3.544133 6.879650 19.341581 23.494596 -2.953838 -1.393403 -8.335320 1.055779 2.757071 -14.764155 4.248002 2.885526 28.637354 -6.069715 0.219382 -6.242887 21.139496 3.523901 
3.498442 44.469448 0.692726 11.699855 -0.592890 -23.208809 0.000000 0.000000 0.000000 1.933811 0.858886 6.601407 6.449985 11.981322 0.870755 -12.028547 -3.327229 -25.789581 -20.003616 6.534044 25.000000 -69.058640 -21.334864 -11.844387 -82.512367 -7.535972 57.897205 -15.916173 -6.629814 -57.908043 -10.213933 4.159223 25.000000 44.689854 15.299740 55.326042 57.919170 -49.096012 35.335148 35.750927 -2.669199 -81.602631 -3.749755 7.760429 19.641912 24.112288 -3.364456 -1.543593 -8.485737 1.767642 2.167804 -14.091701 5.019482 3.096631 27.045616 -6.299003 -0.001441 -4.873069 22.284172 5.720504 
3.349153 44.436069 0.748605 12.481650 -0.781857 -24.294277 0.000000 0.000000 0.000000 1.025763 1.542722 6.775918 6.607466 11.469998 0.826840 -12.043464 -3.107484 -24.972515 -18.760794 6.284920 25.000000 -68.764114 -22.504253 -11.944208 -82.718422 -8.176733 52.126793 -13.346891 -3.570501 -59.355545 -9.558355 4.041062 25.000000 45.439007 14.396832 55.855930 57.786747 -50.716454 31.924496 34.501175 -3.389320 -81.534027 -4.158907 8.818992 20.020493 24.576921 -3.721123 -1.646527 -8.549019 2.379707 1.520421 -13.768650 6.112829 3.418630 25.483660 -6.601720 -0.231720 -3.974317 22.946701 5.322688 
3.218978 44.400654 0.827050 13.155567 -0.789277 -25.086933 0.000000 0.000000 0.000000 0.078177 2.080076 6.917253 6.767838 11.086438 0.806333 -12.460402 -2.925678 -24.333281 -17.840044 6.192339 25.000000 -69.063507 -23.691193 -11.756359 -83.497894 -8.130264 47.766663 -10.823952 -1.608823 -60.261913 -9.349630 3.806420 25.000000 45.913525 13.862213 56.184597 58.251152 -51.741272 29.327597 32.898472 -4.820864 -81.429008 -4.559777 9.436501 20.220442 24.866026 -3.706547 -1.645588 -8.475894 2.725246 0.766096 -13.589751 6.823810 3.603203 24.320543 -6.771551 -0.339213 -3.142524 23.370073 6.109783 
3.127272 44.382587 0.939230 13.360266 -0.655594 -25.370644 0.000000 0.000000 0.000000 -0.449579 2.294851 6.974199 6.733345 10.884907 0.784816 -12.988327 -2.915189 -24.081306 -17.594797 6.103835 25.000000 -69.575615 -24.995594 -11.463731 -84.644905 -7.382800 44.515282 -8.886751 -0.665099 -60.761391 -9.519544 3.759219 25.000000 45.979141 13.445721 56.281284 58.947968 -53.202923 27.092966 31.482630 -6.086677 -81.318275 -4.647286 9.327994 20.175478 24.923735 -3.266886 -1.551508 -8.390260 2.792799 0.258416 -13.298026 6.824526 3.593807 23.726002 -6.611227 -0.363481 -2.601660 23.612614 6.174302 
3.059642 44.383419 1.078364 13.008448 -0.561386 -25.217669 0.000000 0.000000 0.000000 -0.439788 2.236262 6.965274 6.566329 10.980283 0.792086 -13.376864 -3.242533 -24.161341 -18.039852 5.992040 25.000000 -70.049896 -26.748207 -11.179155 -85.666389 -6.024930 42.080585 -7.679434 -0.409146 -61.021088 -10.146191 3.783105 25.000000 45.912838 13.189168 56.289787 59.822746 -55.049740 24.756165 29.850710 -7.799674 -81.140968 -4.257788 8.748795 19.977362 24.857702 -2.622675 -1.397868 -8.474484 2.743827 0.269706 -12.741608 6.278203 3.404893 23.630264 -6.069108 -0.247732 -2.420423 23.639688 6.278789 
